<svg width="600" height="600" viewBox="0 0 600 600" fill="none" xmlns="http://www.w3.org/2000/svg">
<path d="M0 300C0 134.315 134.315 0 300 0V0C465.685 0 600 134.315 600 300V300C600 465.685 465.685 600 300 600V600C134.315 600 0 465.685 0 300V300Z" fill="black"/>
<path d="M120.814 240C120.814 173.726 174.54 120 240.814 120H360.814C427.088 120 480.814 173.726 480.814 240V240H120.814V240Z" fill="white"/>
<path d="M120.814 272L424.814 272C455.742 272 480.814 297.072 480.814 328V328L176.814 328C145.886 328 120.814 302.928 120.814 272V272Z" fill="white"/>
<path d="M480 360C480 426.274 426.274 480 360 480L240 480C173.726 480 120 426.274 120 360V360L480 360V360Z" fill="white"/>
</svg>
