<svg width="1335" height="360" viewBox="0 0 1335 360" fill="none" xmlns="http://www.w3.org/2000/svg">
<rect width="1335" height="360" fill="white"/>
<path d="M503.35 239.466C491.477 239.466 480.791 237.365 471.292 233.164C461.976 228.78 454.578 222.935 449.098 215.628C443.618 208.139 440.695 199.827 440.33 190.694H472.662C473.21 197.087 476.224 202.476 481.704 206.86C487.367 211.061 494.399 213.162 502.802 213.162C511.57 213.162 518.329 211.518 523.078 208.23C528.01 204.759 530.476 200.375 530.476 195.078C530.476 189.415 527.736 185.214 522.256 182.474C516.959 179.734 508.465 176.72 496.774 173.432C485.449 170.327 476.224 167.313 469.1 164.39C461.976 161.467 455.765 156.992 450.468 150.964C445.353 144.936 442.796 136.99 442.796 127.126C442.796 119.089 445.171 111.782 449.92 105.206C454.669 98.4473 461.428 93.15 470.196 89.314C479.147 85.478 489.376 83.56 500.884 83.56C518.055 83.56 531.846 87.944 542.258 96.712C552.853 105.297 558.515 117.079 559.246 132.058H528.01C527.462 125.299 524.722 119.911 519.79 115.892C514.858 111.873 508.191 109.864 499.788 109.864C491.568 109.864 485.266 111.417 480.882 114.522C476.498 117.627 474.306 121.737 474.306 126.852C474.306 130.871 475.767 134.25 478.69 136.99C481.613 139.73 485.175 141.922 489.376 143.566C493.577 145.027 499.788 146.945 508.008 149.32C518.968 152.243 527.919 155.257 534.86 158.362C541.984 161.285 548.103 165.669 553.218 171.514C558.333 177.359 560.981 185.123 561.164 194.804C561.164 203.389 558.789 211.061 554.04 217.82C549.291 224.579 542.532 229.876 533.764 233.712C525.179 237.548 515.041 239.466 503.35 239.466ZM722.599 86.026L629.987 307.966H597.655L628.343 234.534L568.885 86.026H603.683L646.153 201.106L690.267 86.026H722.599ZM814.124 83.56C825.997 83.56 836.592 86.026 845.908 90.958C855.406 95.89 862.804 103.197 868.102 112.878C873.399 122.559 876.048 134.25 876.048 147.95V237H845.086V152.608C845.086 139.091 841.706 128.77 834.948 121.646C828.189 114.339 818.964 110.686 807.274 110.686C795.583 110.686 786.267 114.339 779.326 121.646C772.567 128.77 769.188 139.091 769.188 152.608V237H737.952V86.026H769.188V103.288C774.302 97.0773 780.787 92.2367 788.642 88.766C796.679 85.2953 805.173 83.56 814.124 83.56ZM897.259 160.828C897.259 145.667 900.365 132.241 906.575 120.55C912.969 108.859 921.554 99.8173 932.331 93.424C943.291 86.848 955.439 83.56 968.773 83.56C980.464 83.56 990.785 85.9347 999.735 90.684C1008.87 95.4333 1015.9 101.187 1020.83 107.946V86.026H1052.34V308.788H1020.83V215.08C1015.9 221.839 1008.78 227.593 999.461 232.342C990.145 237.091 979.551 239.466 967.677 239.466C954.708 239.466 942.835 236.178 932.057 229.602C921.463 222.843 912.969 213.527 906.575 201.654C900.365 189.598 897.259 175.989 897.259 160.828ZM1020.83 161.376C1020.83 150.964 1018.64 141.922 1014.26 134.25C1010.06 126.578 1004.48 120.733 997.543 116.714C990.602 112.695 983.113 110.686 975.075 110.686C967.038 110.686 959.549 112.695 952.607 116.714C945.666 120.55 940.003 126.304 935.619 133.976C931.418 141.465 929.317 150.416 929.317 160.828C929.317 171.24 931.418 180.373 935.619 188.228C940.003 196.083 945.666 202.111 952.607 206.312C959.731 210.331 967.221 212.34 975.075 212.34C983.113 212.34 990.602 210.331 997.543 206.312C1004.48 202.293 1010.06 196.448 1014.26 188.776C1018.64 180.921 1020.83 171.788 1020.83 161.376ZM1116.39 34.24V237H1085.15V34.24H1116.39ZM1287.55 157.814C1287.55 163.477 1287.18 168.591 1286.45 173.158H1171.1C1172.01 185.214 1176.49 194.895 1184.52 202.202C1192.56 209.509 1202.42 213.162 1214.11 213.162C1230.92 213.162 1242.79 206.129 1249.73 192.064H1283.44C1278.87 205.947 1270.56 217.363 1258.5 226.314C1246.63 235.082 1231.83 239.466 1214.11 239.466C1199.68 239.466 1186.71 236.269 1175.21 229.876C1163.88 223.3 1154.93 214.167 1148.35 202.476C1141.96 190.603 1138.76 176.903 1138.76 161.376C1138.76 145.849 1141.87 132.241 1148.08 120.55C1154.47 108.677 1163.33 99.5433 1174.66 93.15C1186.17 86.7567 1199.32 83.56 1214.11 83.56C1228.36 83.56 1241.06 86.6653 1252.2 92.876C1263.34 99.0867 1272.02 107.855 1278.23 119.18C1284.44 130.323 1287.55 143.201 1287.55 157.814ZM1254.94 147.95C1254.76 136.442 1250.65 127.217 1242.61 120.276C1234.57 113.335 1224.62 109.864 1212.74 109.864C1201.97 109.864 1192.74 113.335 1185.07 120.276C1177.4 127.035 1172.83 136.259 1171.37 147.95H1254.94Z" fill="black"/>
<path d="M1 120C1 53.7258 54.7258 0 121 0H241C307.274 0 361 53.7258 361 120H1Z" fill="black"/>
<path d="M65 120C65 80.7878 96.7878 49 136 49H225C264.212 49 296 80.7878 296 120H65Z" fill="white"/>
<path d="M1 152L305 152C335.928 152 361 177.072 361 208L57 208C26.0721 208 1 182.928 1 152Z" fill="black"/>
<rect x="270" y="84" width="90" height="36" fill="white"/>
<path d="M360.186 240C360.186 306.274 306.46 360 240.186 360L120.186 360C53.9117 360 0.185913 306.274 0.185913 240L360.186 240Z" fill="black"/>
<path d="M65 120C65 80.7878 96.7878 49 136 49H225C264.212 49 296 80.7878 296 120H65Z" fill="white"/>
<path d="M295 237C295 277.869 261.869 311 221 311L138 311C97.1309 311 64 277.869 64 237L295 237Z" fill="white"/>
<rect x="280" y="84" width="90" height="36" fill="white"/>
<rect x="90" y="276" width="90" height="36" transform="rotate(180 90 276)" fill="white"/>
</svg>
